sfk_cyclingleg_states
version=1
nRows=5
nColumns=53
inDegrees=yes

# SIMM Motion File Header:
name sfk_cyclingleg_states
datacolumns 53
datarows 5
otherdata 1
range 0.55447568 0.55677837
endheader
time	/jointset/bb/crank_angle/value	/jointset/bb/crank_angle/speed	/jointset/spindle/pedal_angle_r/value	/jointset/spindle/pedal_angle_r/speed	/jointset/ground_pelvis/pelvis_tilt/value	/jointset/ground_pelvis/pelvis_tilt/speed	/jointset/ground_pelvis/pelvis_list/value	/jointset/ground_pelvis/pelvis_list/speed	/jointset/ground_pelvis/pelvis_rotation/value	/jointset/ground_pelvis/pelvis_rotation/speed	/jointset/ground_pelvis/pelvis_tx/value	/jointset/ground_pelvis/pelvis_tx/speed	/jointset/ground_pelvis/pelvis_ty/value	/jointset/ground_pelvis/pelvis_ty/speed	/jointset/ground_pelvis/pelvis_tz/value	/jointset/ground_pelvis/pelvis_tz/speed	/jointset/hip_r/hip_angle_r/value	/jointset/hip_r/hip_angle_r/speed	/jointset/hip_r/hip_adduction_r/value	/jointset/hip_r/hip_adduction_r/speed	/jointset/hip_r/hip_rotation_r/value	/jointset/hip_r/hip_rotation_r/speed	/jointset/knee_r/knee_angle_r/value	/jointset/knee_r/knee_angle_r/speed	/jointset/knee_r/tib_tx_r/value	/jointset/knee_r/tib_tx_r/speed	/jointset/knee_r/tib_ty_r/value	/jointset/knee_r/tib_ty_r/speed	/jointset/tib_pat_r/pat_angle_r/value	/jointset/tib_pat_r/pat_angle_r/speed	/jointset/tib_pat_r/pat_tx_r/value	/jointset/tib_pat_r/pat_tx_r/speed	/jointset/tib_pat_r/pat_ty_r/value	/jointset/tib_pat_r/pat_ty_r/speed	/jointset/ankle_r/ankle_angle_r/value	/jointset/ankle_r/ankle_angle_r/speed	/jointset/subtalar_r/subtalar_angle_r/value	/jointset/subtalar_r/subtalar_angle_r/speed	/jointset/mtp_r/mtp_angle_r/value	/jointset/mtp_r/mtp_angle_r/speed	/forceset/bifemlh_r/activation	/forceset/bifemlh_r/fiber_length	/forceset/bifemsh_r/activation	/forceset/bifemsh_r/fiber_length	/forceset/glut_max2_r/activation	/forceset/glut_max2_r/fiber_length	/forceset/vas_int_r/activation	/forceset/vas_int_r/fiber_length	/forceset/med_gas_r/activation	/forceset/med_gas_r/fiber_length	/forceset/tib_ant_r/activation	/forceset/tib_ant_r/fiber_length
      0.55447568	   -276.36007433	   -480.13863232	    252.13880448	    443.07683410	     -0.00000000	     -0.00000000	     -0.00000000	     -0.00000000	      0.00000000	      0.00000000	     -0.00000000	     -0.00000000	     -0.00000000	     -0.00000000	     -0.00000000	     -0.00000000	     56.76331729	    145.96068743	      4.17554879	     -2.10417721	     -2.85092883	    -20.68973371	   -105.43313609	   -231.28248723	      0.00083849	     -0.05881127	     -0.49125581	     -0.07848362	     17.62780067	      0.82426328	      0.02639575	     -0.10272161	     -0.02350780	     -0.01528809	     25.05956188	     49.90885596	     -0.00000000	     -0.00000000	      0.00000000	      0.00000000	     -0.04594657	      0.11716154	     -0.04594657	      0.14705297	     -0.04594657	      0.14196079	     -0.04594657	      0.15614347	      0.05000000	      0.10000000	      0.05000000	      0.10000000
      0.55519763	   -276.70670760	   -480.13863232	    252.45913342	    444.33001709	     -0.00000000	     -0.00000000	     -0.00000000	     -0.00000000	      0.00000000	      0.00000000	     -0.00000000	     -0.00000000	     -0.00000000	     -0.00000000	     -0.00000000	     -0.00000000	     56.86881549	    146.30049375	      4.17403000	     -2.10329431	     -2.86585660	    -20.66451383	   -105.59984225	   -230.54210734	      0.00079599	     -0.05893638	     -0.49131237	     -0.07818935	     17.62839235	      0.81484652	      0.02632165	     -0.10256024	     -0.02351884	     -0.01529805	     25.09565648	     50.08345067	     -0.00000000	     -0.00000000	      0.00000000	      0.00000000	     -0.04603952	      0.11724869	     -0.04603952	      0.14701485	     -0.04603952	      0.14202875	     -0.04603952	      0.15626956	      0.05000000	      0.10000000	      0.05000000	      0.10000000
      0.55591957	   -277.05334087	   -480.13863232	    252.78036795	    445.58558069	     -0.00000000	     -0.00000000	     -0.00000000	     -0.00000000	      0.00000000	      0.00000000	     -0.00000000	     -0.00000000	     -0.00000000	     -0.00000000	     -0.00000000	     -0.00000000	     56.97455856	    146.63905852	      4.17251191	     -2.10224420	     -2.88076593	    -20.63865903	   -105.76601157	   -229.79524724	      0.00075340	     -0.05905712	     -0.49136871	     -0.07789277	     17.62897719	      0.80531949	      0.02624767	     -0.10239466	     -0.02352989	     -0.01530672	     25.13187608	     50.25511092	     -0.00000000	     -0.00000000	      0.00000000	      0.00000000	     -0.04613247	      0.11733643	     -0.04613247	      0.14697716	     -0.04613247	      0.14209677	     -0.04613247	      0.15629859	      0.05000000	      0.10000000	      0.05000000	      0.10000000
      0.55634897	   -277.25951167	   -480.13863232	    252.97186227	    446.33346979	     -0.00000000	     -0.00000000	     -0.00000000	     -0.00000000	      0.00000000	      0.00000000	     -0.00000000	     -0.00000000	     -0.00000000	     -0.00000000	     -0.00000000	     -0.00000000	     57.03756827	    146.83982923	      4.17160936	     -2.10154007	     -2.88962478	    -20.62297624	   -105.86458935	   -229.34794986	      0.00072802	     -0.05912685	     -0.49140212	     -0.07771528	     17.62932177	      0.79960214	      0.02620372	     -0.10229417	     -0.02353646	     -0.01531126	     25.15347721	     50.35580025	     -0.00000000	     -0.00000000	      0.00000000	      0.00000000	     -0.04618775	      0.11738889	     -0.04618775	      0.14695494	     -0.04618775	      0.14213726	     -0.04618775	      0.15644620	      0.05000000	      0.10000000	      0.05000000	      0.10000000
      0.55677837	   -277.46568247	   -480.13863232	    253.16367790	    447.08216643	     -0.00000000	     -0.00000000	     -0.00000000	     -0.00000000	      0.00000000	      0.00000000	     -0.00000000	     -0.00000000	     -0.00000000	     -0.00000000	     -0.00000000	     -0.00000000	     57.10066409	    147.04014374	      4.17070712	     -2.10077645	     -2.89847685	    -20.60706373	   -105.96297457	   -228.89835182	      0.00070262	     -0.05919501	     -0.49143545	     -0.07753699	     17.62966388	      0.79384774	      0.02615982	     -0.10219218	     -0.02354304	     -0.01531534	     25.17512134	     50.45542506	     -0.00000000	     -0.00000000	      0.00000000	      0.00000000	     -0.04624304	      0.11744155	     -0.04624304	      0.14693287	     -0.04624304	      0.14217778	     -0.04624304	      0.15643635	      0.05000000	      0.10000000	      0.05000000	      0.10000000
